<svg height="73" viewBox="0 0 61 73" width="61" xmlns="http://www.w3.org/2000/svg"><g fill="none" fill-rule="evenodd" stroke="#000" stroke-linecap="round" stroke-linejoin="round" transform="translate(1 1)"><g stroke-width="2"><circle cx="26.534" cy="38.423" r="26.167"/><path d="M25.626 64.59s-1.917.408-1.917 3.158 2.825 3.009 2.825 3.009c17.857 0 32.333-14.476 32.333-32.333 0 0 .603-3.842-2.908-3.842S52.7 37.165 52.7 37.165"/><path d="M33.834 58.498v-1.875s.125-4.5-5.25-4.5H16.709c-2.25 0-8.375-.625-8.375-6.125v-8.75h9.625s5.75 0 5.75-4.5v-7.625h13.25s6.625-.125 6.625 7.75v12.25s-.375 3.25-4.875 3.25-4.125-4.5-4.125-4.5V33.748"/><circle cx="29.647" cy="34.581" r="1"/><path d="M16.709 52.123s5.5-.875 6-6.938"/></g><path d="M7.647 29.935s3.313-12.438 17-13.312"/><path d="M43.584 44.081h4.709" stroke-width="2"/><circle cx="52.701" cy="2.393" r="1.656" stroke-width="2"/><path d="M52.701 37.164V5" stroke-width="2"/></g></svg>